<svg xmlns="http://www.w3.org/2000/svg" version="1.1" xmlns:xlink="http://www.w3.org/1999/xlink" xmlns:svgjs="http://svgjs.dev/svgjs" width="128" height="128" viewBox="0 0 128 128"><g transform="matrix(0.8046875,0,0,0.8046875,12.221578124999994,35.81142192542738)"><svg viewBox="0 0 96 52" data-background-color="#000000" preserveAspectRatio="xMidYMid meet" height="69" width="128" xmlns="http://www.w3.org/2000/svg" xmlns:xlink="http://www.w3.org/1999/xlink"><g id="tight-bounds" transform="matrix(1,0,0,1,0.25950000000000273,0.3997714456669996)"><svg viewBox="0 0 95.481 51.20045710866601" height="51.20045710866601" width="95.481"><g><svg viewBox="0 0 95.481 51.20045710866601" height="51.20045710866601" width="95.481"><g><svg viewBox="0 0 95.481 51.20045710866601" height="51.20045710866601" width="95.481"><g id="textblocktransform"><svg viewBox="0 0 95.481 51.20045710866601" height="51.20045710866601" width="95.481" id="textblock"><g><svg viewBox="0 0 95.481 51.20045710866601" height="51.20045710866601" width="95.481"><g><svg viewBox="0 0 95.481 51.20045710866601" height="51.20045710866601" width="95.481"><g><svg xmlns="http://www.w3.org/2000/svg" xmlns:xlink="http://www.w3.org/1999/xlink" version="1.1" x="0" y="0" viewBox="6.301461178252014 26.5672673628087 87.39553882174799 46.8647326371913" enable-background="new 0 0 100 100" xml:space="preserve" height="51.20045710866601" width="95.481" class="icon-icon-0" data-fill-palette-color="accent" id="icon-0"></svg></g></svg></g></svg></g></svg></g></svg></g></svg></g><defs></defs><mask id="60818d4f-2e96-4fd2-abbd-e1eab6067ed4"><g id="SvgjsG1025"><svg viewBox="0 0 95.481 51.20045710866601" height="51.20045710866601" width="95.481"><g><svg viewBox="0 0 95.481 51.20045710866601" height="51.20045710866601" width="95.481"><g><svg viewBox="0 0 95.481 51.20045710866601" height="51.20045710866601" width="95.481"><g id="SvgjsG1024"><svg viewBox="0 0 95.481 51.20045710866601" height="51.20045710866601" width="95.481" id="SvgjsSvg1023"><g><svg viewBox="0 0 95.481 51.20045710866601" height="51.20045710866601" width="95.481"><g><svg viewBox="0 0 95.481 51.20045710866601" height="51.20045710866601" width="95.481"><g><svg xmlns="http://www.w3.org/2000/svg" xmlns:xlink="http://www.w3.org/1999/xlink" version="1.1" x="0" y="0" viewBox="6.301461178252014 26.5672673628087 87.39553882174799 46.8647326371913" enable-background="new 0 0 100 100" xml:space="preserve" height="51.20045710866601" width="95.481" class="icon-icon-0" data-fill-palette-color="accent" id="SvgjsSvg1022"><path d="M90.674 48.656V40.722A1.493 1.493 0 0 0 90.267 38.021L49.234 26.622A1.5 1.5 0 0 0 48.431 26.622L7.399 38.021A1.5 1.5 0 0 0 7.399 40.911L23.603 45.412V64.184A1.5 1.5 0 0 0 25.042 65.683 45.8 45.8 0 0 1 34.212 67.012C39.466 68.319 44.275 70.49 47.755 73.127A1.5 1.5 0 0 0 48.661 73.432H49.081C49.409 73.432 49.727 73.325 49.987 73.127 53.466 70.489 58.276 68.318 63.53 67.012A45.7 45.7 0 0 1 72.7 65.683 1.5 1.5 0 0 0 74.139 64.184V45.391L87.672 41.631V48.674A4.32 4.32 0 0 0 84.709 52.768V60.439H93.697V52.768A4.31 4.31 0 0 0 90.674 48.656M48.834 29.624L78.342 37.821H49.943A1.5 1.5 0 1 0 49.943 40.821H79.382L48.833 49.308 13.404 39.466zM71.141 62.767C68.381 62.964 65.584 63.412 62.808 64.103 57.425 65.44 52.627 67.55 48.872 70.226 45.117 67.55 40.319 65.44 34.935 64.103A49 49 0 0 0 26.603 62.767V46.246L48.431 52.31A1.5 1.5 0 0 0 49.233 52.31L71.139 46.225V62.767zM90.699 57.439H87.711V52.768C87.711 52.034 88.294 51.438 89.012 51.438H89.399C90.116 51.438 90.7 52.034 90.7 52.768V57.439z" fill="white"></path></svg></g></svg></g></svg></g></svg></g></svg></g></svg></g><defs><mask></mask></defs></svg><rect width="95.481" height="51.20045710866601" fill="black" stroke="none" visibility="hidden"></rect></g></mask><linearGradient x1="0" x2="1" y1="0.578" y2="0.595" id="80809e33-9835-4bf0-b7a3-486ee36917c9"><stop stop-color="#6ee2f5" offset="0"></stop><stop stop-color="#6454f0" offset="1"></stop></linearGradient><rect width="95.481" height="51.20045710866601" fill="#ffffff" mask="url(#60818d4f-2e96-4fd2-abbd-e1eab6067ed4)" data-fill-palette-color="accent"></rect></svg><rect width="95.481" height="51.20045710866601" fill="none" stroke="none" visibility="hidden"></rect></g></svg></g></svg>